<svg xmlns="http://www.w3.org/2000/svg" viewBox="0 0 115.1 113.61"><defs><style>.\34 16ae19e-2f4e-43bd-b7c3-0af04b244806,.\34 eb484c4-e53a-4717-ab03-cf8321a0bc16{fill:#003c4c;}.\34 16ae19e-2f4e-43bd-b7c3-0af04b244806{stroke:#70cddd;stroke-linecap:round;stroke-linejoin:round;}</style></defs><title>Untitled-2</title><circle cx="57.55" cy="56.8" r="55" class="4eb484c4-e53a-4717-ab03-cf8321a0bc16"/><path d="M91.9 53.38C87.3 47.9 83 42.24 78.72 36.54a12.67 12.67 0 0 0-7.73-5.3h-2.3c-4.2 1-6.95 3.46-7.8 7.8a9.3 9.3 0 0 0 .3 4.3c.4 1.4.74 2.82 1.15 4.2.26.9.15 1.4-.94 1.37q-1.9 0-3.82 0t-3.83 0c-1.1 0-1.2-.46-.94-1.35.42-1.4.77-2.8 1.15-4.2a9.3 9.3 0 0 0 .32-4.3c-.86-4.35-3.6-6.8-7.8-7.8h-2.33a12.67 12.67 0 0 0-7.7 5.28c-4.28 5.7-8.6 11.38-13.18 16.84A13.4 13.4 0 0 0 20.36 65a14.05 14.05 0 0 0 13.57 11.64A14 14 0 0 0 48 66.74c.4-1.23.9-1.33 2-.8 1.7.83 3.46 1.52 5.17 2.3a5.7 5.7 0 0 0 4.88 0c1.72-.78 3.48-1.47 5.17-2.3 1.07-.54 1.57-.43 2 .8A14.27 14.27 0 0 0 94.8 65a13.4 13.4 0 0 0-2.9-11.62zm-57.4 17.7a8.7 8.7 0 0 1-8.9-8.62 8.8 8.8 0 1 1 17.6-.22 8.65 8.65 0 0 1-8.7 8.84zm23.08-9.6a3.3 3.3 0 0 1-3.4-3.27 3.48 3.48 0 0 1 3.3-3.26h.2A3.48 3.48 0 0 1 61 58.2a3.3 3.3 0 0 1-3.42 3.27zm23.07 9.6A8.65 8.65 0 0 1 72 62.24a8.8 8.8 0 1 1 17.6.22 8.7 8.7 0 0 1-8.95 8.62z" class="416ae19e-2f4e-43bd-b7c3-0af04b244806"/></svg>